<?xml version="1.0" encoding="utf-8"?>
<!-- Generator: Adobe Illustrator 26.0.3, SVG Export Plug-In . SVG Version: 6.00 Build 0)  -->
<svg version="1.1" id="Layer_1" xmlns="http://www.w3.org/2000/svg" xmlns:xlink="http://www.w3.org/1999/xlink" x="0px" y="0px"
	 viewBox="0 0 30 30" style="enable-background:new 0 0 30 30;" xml:space="preserve">
<style type="text/css">
	.st0{fill:#FFFFFF;}
</style>
<g>
	<path class="st0" d="M8.89,19.78h-3.7c-0.82,0-1.48-0.66-1.48-1.48V7c0-0.82,0.66-1.48,1.48-1.48h3.7c0.82,0,1.48,0.66,1.48,1.48
		V18.3C10.36,19.12,9.7,19.78,8.89,19.78z"/>
	<path class="st0" d="M23.88,18.42h-4.24l1.38,2.49c0.89,1.6-0.27,3.57-2.1,3.57c-0.61,0-1.2-0.23-1.64-0.65l-4.64-4.35V6.55h8.3
		c0.97,0,1.85,0.58,2.22,1.48l2.95,7.06C26.76,16.67,25.6,18.42,23.88,18.42z"/>
</g>
</svg>
